<svg width="100" height="123" viewBox="0 0 100 123" fill="none" xmlns="http://www.w3.org/2000/svg">
<path d="M89.952 13.6996H79.9112H70.0892H69.8632V50.4004V60.689H79.9112H89.952V78.7621L80.1372 86.5544V70.3887H70.0892V94.5351V107.552L80.1372 99.5715L99.3631 84.3028L100 83.7976V72.7659V50.4004H99.774H89.952H79.9112V23.9882H89.952V40.3506H100V23.9882V13.6996H89.952Z" fill="#0DCAF0"/>
<path d="M45.2053 13.6996H35.1573V23.9882V99.0451V111.354L35.9453 111.886L42.596 116.367L51.4659 122.343L55.0206 119.523L59.8491 115.68L65.0681 111.543V98.5194V60.689H55.0206V106.5L50.986 109.705L45.2053 105.813V23.9882H55.0206V50.4004H65.0681V23.9882V13.6996H55.0206H45.2053Z" fill="#0DCAF0"/>
<path d="M21.0067 89.507L10.048 82.1211V13.6996H0V77.8855V87.6619L10.048 94.4368L21.0067 101.823L31.0479 108.583V96.2749V62.5614H21.0067V89.507Z" fill="#0DCAF0"/>
<path d="M4.82849 9.49173C4.12939 9.49173 3.48659 9.37474 2.89964 9.13989C2.31226 8.90546 1.8036 8.57441 1.37195 8.14586C0.939885 7.71775 0.603462 7.21597 0.36225 6.64139C0.120614 6.06682 0 5.43461 0 4.74565C0 4.05668 0.120614 3.42491 0.36225 2.85034C0.603462 2.27576 0.94243 1.77486 1.37831 1.34588C1.81376 0.916899 2.32538 0.585842 2.91233 0.351419C3.49928 0.117863 4.14675 0 4.8543 0C5.57032 0 6.22668 0.119159 6.82167 0.358348C7.41751 0.596671 7.92194 0.954596 8.33665 1.43167L7.53388 2.25367C7.16233 1.88275 6.75904 1.61063 6.32316 1.4386C5.88771 1.26614 5.41459 1.17949 4.90551 1.17949C4.38754 1.17949 3.90639 1.26832 3.46205 1.44511C3.01729 1.6219 2.63345 1.86932 2.30929 2.18737C1.98556 2.50542 1.73547 2.88284 1.55858 3.32049C1.38169 3.7577 1.29325 4.23304 1.29325 4.74565C1.29325 5.24959 1.38169 5.7206 1.55858 6.15782C1.73547 6.59503 1.98556 6.97505 2.30929 7.29743C2.63345 7.62068 3.01516 7.86984 3.45484 8.04663C3.89537 8.22386 4.374 8.31138 4.89197 8.31138C5.37567 8.31138 5.83905 8.23425 6.28381 8.07956C6.72858 7.9253 7.14033 7.66662 7.52034 7.30437L8.25837 8.31138C7.80937 8.70007 7.28547 8.99429 6.6854 9.19318C6.08618 9.39207 5.46749 9.49173 4.82849 9.49173ZM7.01676 8.13979V4.69279H8.25963V8.31182L7.01676 8.13979Z" fill="white"/>
<path d="M19.4878 9.49173C18.7976 9.49173 18.1565 9.37214 17.5658 9.13338C16.975 8.89506 16.4634 8.56098 16.0317 8.13286C15.5997 7.70388 15.2632 7.20254 15.0216 6.62797C14.78 6.0534 14.6594 5.42638 14.6594 4.74565C14.6594 4.06534 14.78 3.43835 15.0216 2.86377C15.2628 2.28963 15.5997 1.78786 16.0317 1.35888C16.4634 0.930764 16.972 0.596671 17.5594 0.358348C18.1464 0.119159 18.7888 0 19.4878 0C20.1785 0 20.8154 0.11743 21.3972 0.351419C21.98 0.586275 22.4895 0.917332 22.9249 1.34588C23.3612 1.77443 23.6976 2.27576 23.935 2.85034C24.1725 3.42491 24.2909 4.05624 24.2909 4.74565C24.2909 5.43505 24.1725 6.06725 23.935 6.64139C23.6976 7.21597 23.3612 7.71732 22.9249 8.14586C22.4895 8.57484 21.98 8.9059 21.3972 9.13989C20.8154 9.37474 20.1785 9.49173 19.4878 9.49173ZM19.4878 8.31182C19.9889 8.31182 20.4523 8.22386 20.8797 8.04707C21.3071 7.87028 21.6782 7.62112 21.9935 7.29787C22.3083 6.97548 22.5546 6.59764 22.7315 6.16476C22.908 5.73144 22.9969 5.25913 22.9969 4.74608C22.9969 4.23347 22.908 3.76116 22.7315 3.32828C22.5546 2.89497 22.3083 2.51755 21.9935 2.19517C21.6782 1.87235 21.3071 1.62276 20.8797 1.44597C20.4527 1.26918 19.9889 1.18035 19.4878 1.18035C18.9788 1.18035 18.5107 1.26918 18.0833 1.44597C17.6563 1.62276 17.2827 1.87235 16.9636 2.19517C16.6441 2.51755 16.3961 2.8954 16.2192 3.32828C16.0423 3.76116 15.9539 4.23391 15.9539 4.74608C15.9539 5.25913 16.0423 5.73144 16.2192 6.16476C16.3961 6.59807 16.6441 6.97548 16.9636 7.29787C17.2827 7.62112 17.6563 7.87028 18.0833 8.04707C18.5107 8.22386 18.9788 8.31182 19.4878 8.31182Z" fill="white"/>
<path d="M34.782 9.4917C33.5911 9.4917 32.6546 9.14289 31.9729 8.44439C31.2907 7.74632 30.9501 6.72586 30.9501 5.38259V0.106567H32.245V5.32973C32.245 6.36362 32.4667 7.11931 32.9115 7.59595C33.3563 8.07347 33.9843 8.31179 34.7955 8.31179C35.6152 8.31179 36.2474 8.07347 36.6918 7.59595C37.1365 7.11888 37.3587 6.36362 37.3587 5.32973V0.106567H38.6143V5.38259C38.6143 6.72629 38.2757 7.74675 37.5982 8.44439C36.9199 9.14289 35.9817 9.4917 34.782 9.4917Z" fill="white"/>
<path d="M46.9878 9.3856V0.106201H48.2827V8.23212H53.1886V9.3856H46.9878Z" fill="white"/>
<path d="M60.6434 9.3856L64.7474 0.106201H66.0288L70.1459 9.3856H68.7866L65.1232 0.848459H65.6411L61.9777 9.3856H60.6434ZM62.3915 7.06564L62.7411 6.00532H67.8421L68.217 7.06564H62.3915Z" fill="white"/>
<path d="M76.9667 9.3856V0.106201H80.5015C81.2954 0.106201 81.9729 0.234029 82.534 0.490984C83.0947 0.747072 83.5264 1.11841 83.829 1.60415C84.1307 2.09033 84.2818 2.66881 84.2818 3.34045C84.2818 4.01252 84.1307 4.58925 83.829 5.07066C83.5264 5.5525 83.0952 5.92126 82.534 6.17779C81.9729 6.43387 81.2954 6.5617 80.5015 6.5617H77.6789L78.2616 5.95203V9.38516H76.9667V9.3856ZM78.2612 6.08505L77.6785 5.43508H80.4621C81.2907 5.43508 81.9183 5.25222 82.3457 4.88477C82.7731 4.51862 82.9864 4.00342 82.9864 3.34045C82.9864 2.67834 82.7731 2.16573 82.3457 1.80305C81.9183 1.4408 81.2907 1.25968 80.4621 1.25968H77.6785L78.2612 0.596707V6.08505ZM83.0254 9.3856L80.7215 6.01876H82.1062L84.4366 9.3856H83.0254Z" fill="white"/>
<path d="M95.3678 9.3856V1.25968H92.26V0.106201H99.7562V1.25968H96.6492V9.3856H95.3678Z" fill="white"/>
</svg>
